HIERARCHY
ROOT Hips
{
 OFFSET 0.000000 0.000000 0.000000
 CHANNELS 6 Xposition Yposition Zposition Yrotation Xrotation Zrotation
 JOINT Chest
 {
  OFFSET 0.000000 9.585900 0.002600
  CHANNELS 3 Yrotation Xrotation Zrotation
  JOINT Chest2
  {
   OFFSET 0.000000 9.601200 -0.005300
   CHANNELS 3 Yrotation Xrotation Zrotation
   JOINT Chest3
   {
    OFFSET 0.000000 9.561800 0.000000
    CHANNELS 3 Yrotation Xrotation Zrotation
    JOINT Chest4
    {
     OFFSET 0.000000 9.552100 0.000000
     CHANNELS 3 Yrotation Xrotation Zrotation
     JOINT Neck
     {
      OFFSET 0.000000 14.453000 0.000000
      CHANNELS 3 Yrotation Xrotation Zrotation
      JOINT Head
      {
       OFFSET 0.000000 8.936500 -0.011300
       CHANNELS 3 Yrotation Xrotation Zrotation
       End Site
       {
        OFFSET 0.000000 17.073600 -0.006000
       }
      }
     }
     JOINT RightCollar
     {
      OFFSET -2.921100 9.558500 0.000000
      CHANNELS 3 Yrotation Xrotation Zrotation
      JOINT RightShoulder
      {
       OFFSET -13.519700 0.000000 0.000000
       CHANNELS 3 Yrotation Xrotation Zrotation
       JOINT RightElbow
       {
        OFFSET 0.000000 -29.696600 0.000000
        CHANNELS 3 Yrotation Xrotation Zrotation
        JOINT RightWrist
        {
         OFFSET 0.000000 -24.004700 0.000000
         CHANNELS 3 Yrotation Xrotation Zrotation
         End Site
         {
          OFFSET 0.000000 -17.728500 0.000000
         }
        }
       }
      }
     }
     JOINT LeftCollar
     {
      OFFSET 2.921100 9.558500 0.000000
      CHANNELS 3 Yrotation Xrotation Zrotation
      JOINT LeftShoulder
      {
       OFFSET 13.519700 0.000000 0.000000
       CHANNELS 3 Yrotation Xrotation Zrotation
       JOINT LeftElbow
       {
        OFFSET 0.000000 -29.696600 0.000000
        CHANNELS 3 Yrotation Xrotation Zrotation
        JOINT LeftWrist
        {
         OFFSET 0.000000 -24.004700 0.000000
         CHANNELS 3 Yrotation Xrotation Zrotation
         End Site
         {
          OFFSET 0.000000 -17.728500 0.000000
         }
        }
       }
      }
     }
    }
   }
  }
 }
 JOINT RightHip
 {
  OFFSET -7.771700 -0.012900 -0.001300
  CHANNELS 3 Yrotation Xrotation Zrotation
  JOINT RightKnee
  {
   OFFSET 0.000000 -40.869800 0.001200
   CHANNELS 3 Yrotation Xrotation Zrotation
   JOINT RightAnkle
   {
    OFFSET 0.000000 -39.717900 0.002100
    CHANNELS 3 Yrotation Xrotation Zrotation
    JOINT RightToe
    {
     OFFSET 0.000000 -4.965400 11.033500
     CHANNELS 3 Yrotation Xrotation Zrotation
     End Site
     {
      OFFSET 0.000000 -1.423100 5.872300
     }
    }
   }
  }
 }
 JOINT LeftHip
 {
  OFFSET 7.771700 -0.012900 -0.001300
  CHANNELS 3 Yrotation Xrotation Zrotation
  JOINT LeftKnee
  {
   OFFSET 0.000000 -40.869800 0.001200
   CHANNELS 3 Yrotation Xrotation Zrotation
   JOINT LeftAnkle
   {
    OFFSET 0.000000 -39.717900 0.002100
    CHANNELS 3 Yrotation Xrotation Zrotation
    JOINT LeftToe
    {
     OFFSET 0.000000 -4.965400 11.033500
     CHANNELS 3 Yrotation Xrotation Zrotation
     End Site
     {
      OFFSET 0.000000 -1.423100 5.872300
     }
    }
   }
  }
 }
}
MOTION
Frames: 13
Frame Time: 0.008333
0.000000 85.388000 0.000000 0.000000 -5.767877 0.000000 0.000000 11.653817 0.000000 0.000000 -5.885947 0.000000 0.000000 -0.000000 0.000000 0.000000 -0.000000 0.000000 0.000000 12.528835 0.000000 0.000000 0.711642 0.000000 0.000000 -0.000000 0.000000 0.000000 0.000000 -90.000000 0.000000 -2.309062 0.000000 0.000000 2.309062 0.000000 0.000000 -0.000000 0.000000 0.000000 -0.000000 90.000000 0.000000 -2.309062 0.000000 0.000000 2.309062 0.000000 0.000000 8.520406 0.000000 0.000000 1.905762 0.000000 -0.000000 -4.658285 0.000000 0.000000 -0.000000 0.000000 0.000000 8.520406 0.000000 0.000000 1.905762 0.000000 -0.000000 -4.658285 0.000000 0.000000 -0.000000 0.000000
-115.414985 58.260476 100.225592 179.997368 -31.757150 3.685372 4.613303 20.649680 3.442248 0.535301 2.755239 0.313474 0.881654 4.492787 0.525094 3.818759 17.667676 2.544052 0.392730 12.911710 -12.010154 5.480739 -10.797925 -22.886738 5.042497 -4.308658 0.023501 25.181820 -44.951460 -23.254987 -169.312961 -58.386609 -164.726039 19.215239 21.680799 30.113686 -7.174598 -1.623791 -2.083212 21.813707 -18.163248 -4.005239 -149.271958 -53.585624 150.939106 -9.969043 -0.208093 22.052669 8.336315 -43.308432 -11.650824 -8.097904 70.268749 -10.850583 6.105617 21.489846 5.168421 -0.511681 -16.575554 2.892640 -6.093850 -41.126626 -5.992003 25.881399 62.162482 21.679319 -15.344066 9.827104 -1.853926 -0.067271 -0.362033 -0.067464
-115.418022 58.265964 100.223452 179.993039 -31.796752 3.822699 4.696461 20.657342 3.402340 0.540769 2.750528 0.306550 0.890522 4.485425 0.513929 3.852190 17.653931 2.504829 0.411691 12.986152 -12.197457 5.570655 -10.627135 -23.234754 5.164099 -4.421133 0.001303 25.692421 -45.700699 -23.520985 -169.185595 -58.680472 -164.697104 18.004444 21.004463 27.202239 -7.183765 -1.646816 -2.160719 21.717319 -18.430150 -3.910203 -147.545934 -54.373473 149.473252 -11.056082 2.060374 18.999034 8.421554 -43.271573 -11.813847 -8.034283 70.299183 -10.809390 6.097417 21.495075 5.146206 -0.502256 -16.592033 2.903774 -6.009450 -41.059974 -6.176238 25.878745 62.098497 21.668984 -15.326769 9.812420 -1.853884 -0.080570 -0.321870 -0.076594
-115.414294 58.269444 100.224944 -179.984918 -31.820934 3.921485 4.772104 20.646360 3.387474 0.546909 2.746389 0.299731 0.900474 4.478903 0.503017 3.889678 17.640931 2.466606 0.427166 13.072123 -12.373062 5.646752 -10.437602 -23.557139 5.281797 -4.534223 -0.022993 26.203056 -46.442140 -23.790498 -169.023708 -59.151122 -164.706454 16.694305 20.248527 24.113148 -7.207036 -1.660954 -2.258081 21.650714 -18.778417 -3.714870 -145.997470 -55.290216 147.955025 -12.257978 4.173702 15.575399 8.469915 -43.261037 -11.952425 -7.953419 70.330769 -10.743018 6.109318 21.538531 5.110420 -0.520560 -16.641741 2.933481 -5.947808 -41.032687 -6.323029 25.858760 62.067263 21.653017 -15.320148 9.834413 -1.863321 -0.087725 -0.311223 -0.073232
-115.412862 58.272199 100.228840 -179.956322 -31.840316 4.040630 4.839571 20.632349 3.351373 0.553338 2.743045 0.293278 0.910831 4.473699 0.492678 3.928580 17.629734 2.430576 0.438336 13.169828 -12.538242 5.707924 -10.228961 -23.856020 5.400860 -4.647591 -0.058240 26.733751 -47.158389 -24.077838 -168.867372 -59.789454 -164.732097 15.298441 19.396952 20.888868 -7.239675 -1.651680 -2.366196 21.598585 -19.215985 -3.419442 -144.668361 -56.352132 146.417595 -13.527310 6.096493 11.906927 8.533898 -43.253433 -12.122731 -7.898665 70.364016 -10.710337 6.129133 21.565009 5.105357 -0.531764 -16.677321 2.938217 -5.899155 -41.001196 -6.492899 25.841090 62.004891 21.636029 -15.315984 9.854102 -1.900872 -0.074244 -0.276257 -0.056927
-115.412749 58.271804 100.238574 -179.883262 -31.832606 4.149368 4.875451 20.589176 3.303486 0.560372 2.740613 0.287238 0.922171 4.469965 0.482887 3.970978 17.620404 2.396944 0.443425 13.278774 -12.691508 5.750464 -10.002642 -24.127998 5.519845 -4.759978 -0.103306 27.309498 -47.831337 -24.401031 -168.789337 -60.582856 -164.726338 13.861130 18.391028 17.597855 -7.286588 -1.618136 -2.473893 21.537644 -19.745090 -3.018960 -143.561055 -57.552231 144.864382 -14.835534 7.829566 8.112102 8.579964 -43.272754 -12.320733 -7.838056 70.397083 -10.669287 6.148501 21.585364 5.101528 -0.544514 -16.706332 2.941163 -5.895686 -40.998601 -6.665432 25.780482 61.914404 21.585401 -15.342547 9.901335 -1.989594 -0.027892 -0.268359 -0.030610
-115.414687 58.275030 100.242979 -179.860266 -31.869838 4.298755 4.961208 20.592888 3.246411 0.568952 2.738720 0.281287 0.936025 4.466963 0.473269 4.023020 17.610998 2.364687 0.440154 13.398549 -12.828884 5.769008 -9.760672 -24.364824 5.625063 -4.867680 -0.147498 27.955400 -48.445854 -24.773678 -168.868653 -61.513235 -164.628260 12.436212 17.182582 14.315602 -7.358560 -1.568027 -2.572212 21.462735 -20.361217 -2.507132 -142.655356 -58.874205 143.271327 -16.171241 9.408570 4.233581 8.672312 -43.245879 -12.532089 -7.782622 70.435875 -10.628869 6.162097 21.607025 5.089001 -0.552928 -16.738022 2.946624 -5.899768 -40.939949 -6.832862 25.813377 61.825151 21.563131 -15.320682 9.894884 -2.023247 -0.032524 -0.216666 -0.025863
-115.415680 58.277141 100.248921 -179.816301 -31.905231 4.432591 5.048895 20.587989 3.194769 0.579580 2.736866 0.275000 0.953199 4.463920 0.463310 4.087977 17.599819 2.332038 0.427485 13.529485 -12.947474 5.760537 -9.503361 -24.560768 5.707552 -4.963139 -0.184912 28.668441 -48.998868 -25.194779 -169.135833 -62.559670 -164.401570 11.072828 15.766132 11.101583 -7.455720 -1.517017 -2.658258 21.381053 -21.046917 -1.880576 -141.969789 -60.317364 141.642565 -17.559682 10.901775 0.189501 8.742719 -43.223124 -12.734394 -7.725815 70.479471 -10.590218 6.167739 21.618405 5.078525 -0.557456 -16.763778 2.949528 -5.893408 -40.896033 -7.014286 25.822052 61.749585 21.542645 -15.296054 9.913199 -2.053668 -0.034732 -0.181200 -0.024495
-115.417315 58.277239 100.257774 -179.769306 -31.926226 4.570942 5.151518 20.561631 3.137711 0.591755 2.734401 0.268113 0.972982 4.459923 0.452481 4.163144 17.585673 2.296976 0.406602 13.672413 -13.046821 5.726895 -9.229126 -24.715575 5.771424 -5.034309 -0.212314 29.437022 -49.498346 -25.667341 -169.594088 -63.704799 -164.025975 9.808294 14.184705 7.998328 -7.574932 -1.474530 -2.733573 21.301531 -21.788396 -1.149256 -141.531092 -61.894812 139.988913 -19.026325 12.305291 -4.111963 8.765069 -43.230352 -12.913713 -7.619283 70.526429 -10.544632 6.179534 21.644444 5.076993 -0.563914 -16.800657 2.946393 -5.862198 -40.873504 -7.214768 25.808672 61.681112 21.514975 -15.266354 9.948187 -2.081386 -0.044381 -0.171375 -0.026332
-115.416624 58.278059 100.264463 -179.699091 -31.966855 4.687492 5.251690 20.546157 3.096080 0.604872 2.730804 0.260670 0.994299 4.454177 0.440671 4.244809 17.567544 2.259106 0.379198 13.827549 -13.129696 5.672614 -8.936813 -24.835182 5.823554 -5.074747 -0.230595 30.256177 -49.951051 -26.197026 -170.240687 -64.935629 -163.491779 8.645385 12.518124 5.052503 -7.721385 -1.435091 -2.805616 21.225123 -22.582709 -0.335438 -141.315658 -63.583199 138.289171 -20.593639 13.536192 -8.638257 8.820673 -43.190625 -13.107071 -7.614710 70.558919 -10.553745 6.178017 21.626032 5.068531 -0.560326 -16.798891 2.948686 -5.855455 -40.832771 -7.408204 25.791029 61.613573 21.484717 -15.223192 9.982729 -2.102905 -0.061085 -0.161682 -0.032054
-115.413747 58.279997 100.268260 -179.647285 -32.027453 4.807814 5.375294 20.545936 3.066671 0.618219 2.726033 0.252915 1.015872 4.446620 0.428301 4.328191 17.545774 2.219576 0.347616 13.993786 -13.200831 5.604106 -8.627148 -24.929555 5.874274 -5.083739 -0.247337 31.117245 -50.363094 -26.776089 -171.083666 -66.255271 -162.780818 7.554691 10.838247 2.307493 -7.895799 -1.390021 -2.886221 21.125595 -23.422010 0.546945 -141.272711 -65.308543 136.526738 -22.304245 14.533050 -13.287833 8.882208 -43.131348 -13.287003 -7.638123 70.590031 -10.588292 6.185205 21.615108 5.057354 -0.561165 -16.804460 2.954196 -5.835242 -40.773557 -7.594000 25.809101 61.562703 21.478098 -15.173810 9.998342 -2.099117 -0.093279 -0.150203 -0.047758
-115.411632 58.279017 100.276152 -179.553580 -32.062392 4.920476 5.462405 20.514076 3.021841 0.630928 2.720487 0.245235 1.036449 4.437855 0.416024 4.408187 17.522056 2.180169 0.314059 14.167461 -13.263510 5.527294 -8.305806 -25.006370 5.929784 -5.064601 -0.265595 32.015295 -50.742114 -27.394244 -172.161607 -67.663059 -161.853571 6.532154 9.187359 -0.197384 -8.093616 -1.338472 -2.979791 20.954958 -24.286941 1.496324 -141.334145 -66.984084 134.680043 -24.118783 15.266830 -17.958893 8.908337 -43.103591 -13.475631 -7.664664 70.626883 -10.643118 6.188254 21.592901 5.042273 -0.557889 -16.802715 2.962739 -5.835271 -40.746909 -7.790729 25.764396 61.502409 21.415327 -15.120261 10.050286 -2.119064 -0.118752 -0.153873 -0.048944
-115.407174 58.279902 100.280169 -179.436296 -32.124703 5.017882 5.533398 20.506411 2.984236 0.642708 2.714746 0.237945 1.055676 4.428746 0.404335 4.483198 17.498141 2.142503 0.279067 14.342878 -13.319140 5.445133 -7.982755 -25.069535 5.983736 -5.026105 -0.283470 32.951652 -51.095026 -28.045326 -173.489611 -69.142078 -160.701243 5.622513 7.621744 -2.400543 -8.318699 -1.288347 -3.082747 20.670421 -25.148905 2.519611 -141.411455 -68.529192 132.693843 -25.872016 15.704327 -22.527083 8.896321 -43.053909 -13.645153 -7.698253 70.689220 -10.700592 6.146115 21.525327 4.987821 -0.534621 -16.775933 2.984037 -5.849934 -40.697025 -7.977944 25.724810 61.452953 21.348958 -15.089146 10.097933 -2.127343 -0.136023 -0.159113 -0.055857
